<?xml version="1.0" standalone="no"?>
<!DOCTYPE svg PUBLIC "-//W3C//DTD SVG 20010904//EN"
 "http://www.w3.org/TR/2001/REC-SVG-20010904/DTD/svg10.dtd">
<svg version="1.0" xmlns="http://www.w3.org/2000/svg"
 width="1068.000000pt" height="1068.000000pt" viewBox="0 0 1068.000000 1068.000000"
 preserveAspectRatio="xMidYMid meet">
<metadata>
Created by potrace 1.14, written by Peter Selinger 2001-2017
</metadata>
<g transform="translate(0.000000,1068.000000) scale(0.100000,-0.100000)"
fill="#000000" stroke="none">
<path d="M1180 7745 l0 -215 225 0 225 0 0 -575 0 -575 270 0 270 0 0 575 0
575 228 2 227 3 0 210 0 210 -722 3 -723 2 0 -215z"/>
<path d="M2767 7953 c-4 -3 -7 -359 -7 -790 l0 -783 245 0 245 0 2 333 3 333
161 -260 161 -261 124 0 124 0 160 269 160 270 6 -255 c3 -139 7 -293 8 -341
l1 -88 245 0 245 0 0 698 c0 385 -3 740 -6 790 l-7 92 -212 0 c-189 0 -213 -2
-227 -17 -8 -10 -117 -191 -243 -403 -125 -212 -233 -390 -239 -397 -8 -9 -70
84 -256 389 -135 220 -251 407 -258 415 -10 10 -60 13 -221 13 -114 0 -211 -3
-214 -7z"/>
<path d="M4897 7953 c-4 -3 -7 -359 -7 -790 l0 -783 270 0 270 0 0 195 0 195
70 0 70 0 130 -195 130 -195 286 0 c225 0 285 3 281 13 -3 6 -75 115 -160 241
l-156 228 59 40 c149 99 229 259 230 455 0 168 -51 296 -161 405 -113 112
-251 167 -464 188 -120 11 -838 14 -848 3z m834 -435 c20 -9 49 -33 65 -53 24
-32 28 -46 28 -105 1 -54 -3 -74 -20 -96 -51 -68 -97 -83 -261 -84 l-113 0 0
181 0 182 133 -5 c87 -3 144 -10 168 -20z"/>
<path d="M6567 7953 c-4 -3 -7 -359 -7 -790 l0 -783 655 0 655 0 0 205 0 205
-390 0 -390 0 0 95 0 95 330 0 330 0 0 195 0 195 -330 0 -330 0 0 85 0 85 368
0 c202 0 373 4 380 8 9 7 12 55 10 208 l-3 199 -636 3 c-349 1 -639 -1 -642
-5z"/>
<path d="M7883 7938 c2 -13 86 -214 185 -448 99 -234 245 -578 324 -765 l144
-340 265 -3 266 -2 331 782 c182 430 329 786 326 790 -3 4 -119 8 -258 8 -191
0 -256 -3 -263 -12 -6 -7 -94 -212 -195 -456 -102 -244 -188 -437 -191 -430
-81 208 -364 885 -371 890 -6 4 -136 8 -290 8 l-278 0 5 -22z"/>
<path d="M1072 5630 c-113 -17 -220 -99 -273 -207 -40 -82 -39 -313 2 -354 16
-16 34 -19 123 -19 121 0 271 -27 349 -63 29 -13 79 -45 112 -72 33 -26 66
-53 73 -58 10 -8 25 2 60 35 115 113 212 148 429 157 191 8 191 8 206 139 9
76 8 101 -6 159 -21 83 -73 163 -142 215 -94 71 -97 72 -510 74 -203 1 -394
-1 -423 -6z"/>
<path d="M2617 5630 c-111 -19 -206 -92 -264 -202 -27 -51 -28 -57 -27 -198 2
-187 -5 -180 180 -180 73 0 157 -5 186 -11 85 -18 188 -72 258 -137 l65 -60
60 57 c117 108 239 151 431 151 123 0 157 8 174 41 7 12 14 74 17 138 5 103 3
123 -17 173 -26 71 -105 160 -169 193 -26 13 -73 28 -106 34 -68 13 -714 13
-788 1z"/>
<path d="M4167 5630 c-120 -21 -235 -116 -277 -227 -19 -50 -21 -74 -18 -185
2 -106 6 -130 21 -145 15 -15 43 -19 185 -24 136 -5 178 -10 227 -27 69 -26
140 -71 210 -134 l50 -46 64 61 c113 105 234 147 422 147 65 0 129 4 144 10
37 14 47 51 49 185 1 113 -1 124 -28 183 -36 78 -113 152 -194 184 -56 22 -66
23 -432 24 -206 1 -397 -2 -423 -6z"/>
<path d="M5712 5629 c-165 -28 -292 -175 -295 -342 -2 -113 11 -186 38 -213
23 -23 31 -24 152 -24 202 0 319 -40 436 -150 l67 -63 58 55 c119 113 208 147
417 157 83 4 160 13 172 19 32 18 45 80 41 196 -2 84 -8 111 -30 158 -50 107
-153 185 -273 207 -70 13 -704 13 -783 0z"/>
<path d="M7250 5626 c-30 -7 -73 -22 -95 -33 -59 -31 -130 -110 -162 -178 -25
-53 -28 -71 -27 -160 0 -123 15 -182 50 -195 14 -6 83 -10 153 -10 192 0 243
-17 415 -141 l79 -57 64 54 c65 56 149 103 218 124 22 6 109 15 193 19 183 9
187 11 204 117 37 243 -77 423 -297 463 -83 16 -723 13 -795 -3z"/>
<path d="M8800 5626 c-115 -26 -210 -101 -258 -204 -25 -53 -27 -66 -25 -183
0 -69 4 -136 8 -148 10 -34 44 -41 189 -41 196 0 255 -19 405 -130 46 -34 89
-59 96 -56 8 3 47 29 87 59 144 107 209 127 406 127 164 0 166 1 182 116 30
210 -34 351 -197 431 l-77 38 -380 2 c-276 1 -396 -1 -436 -11z"/>
<path d="M253 4846 c-147 -47 -241 -167 -251 -320 -5 -78 82 -995 98 -1033
l10 -23 570 0 c359 0 578 4 590 10 14 7 20 26 24 72 4 35 26 268 51 519 43
437 44 457 29 514 -28 110 -103 198 -210 247 -48 23 -56 23 -459 25 -319 2
-419 -1 -452 -11z"/>
<path d="M1799 4845 c-63 -20 -137 -71 -175 -122 -69 -91 -87 -193 -64 -370 5
-40 26 -247 45 -460 28 -305 40 -391 52 -405 15 -17 54 -18 578 -18 521 0 564
1 584 18 19 15 23 39 41 212 11 107 32 308 46 445 31 296 29 432 -5 511 -30
67 -101 137 -175 171 l-61 28 -410 2 c-335 2 -418 -1 -456 -12z"/>
<path d="M3337 4841 c-125 -41 -211 -142 -236 -276 -9 -47 -7 -101 9 -269 54
-557 82 -811 93 -818 7 -4 270 -8 584 -8 l573 0 14 23 c7 12 17 58 20 102 4
44 25 262 47 485 22 223 39 430 36 461 -3 31 -14 77 -25 103 -29 64 -114 150
-181 183 l-56 28 -410 2 c-377 2 -415 1 -468 -16z"/>
<path d="M4905 4846 c-138 -44 -231 -146 -256 -283 -8 -43 -7 -91 6 -202 9
-80 31 -308 49 -505 29 -314 35 -361 51 -373 15 -10 126 -13 578 -13 350 0
565 4 577 10 10 5 21 22 24 37 6 32 69 641 86 834 21 239 -15 357 -137 440
-95 66 -121 69 -551 68 -283 0 -398 -4 -427 -13z"/>
<path d="M6453 4846 c-100 -32 -196 -115 -236 -204 -25 -58 -33 -168 -18 -253
9 -53 32 -295 77 -808 11 -122 -49 -111 619 -111 451 0 577 3 580 13 3 6 21
170 40 362 19 193 42 416 51 498 13 119 14 160 4 214 -22 128 -85 213 -199
267 l-66 31 -405 2 c-316 2 -414 -1 -447 -11z"/>
<path d="M7989 4844 c-112 -34 -216 -148 -239 -261 -11 -49 -8 -102 19 -383
16 -179 38 -410 47 -515 9 -104 21 -196 27 -202 7 -10 137 -13 588 -13 l579 0
14 23 c8 12 17 65 21 122 3 55 24 282 45 505 30 309 37 416 30 453 -21 107
-101 205 -208 255 l-57 27 -410 2 c-333 2 -419 -1 -456 -13z"/>
<path d="M9557 4849 c-141 -34 -250 -162 -263 -311 -4 -40 9 -209 35 -473 22
-225 43 -443 47 -484 11 -122 -47 -111 608 -111 623 0 590 -3 600 63 16 100
56 569 56 651 0 67 7 124 21 179 26 101 22 208 -10 280 -30 70 -110 149 -184
183 l-62 29 -405 2 c-223 1 -422 -3 -443 -8z"/>
<path d="M119 3341 c-19 -16 -24 -30 -27 -90 -3 -54 0 -77 12 -96 l16 -25 564
0 c533 0 564 1 579 18 13 15 17 39 17 115 l0 97 -569 0 c-542 0 -570 -1 -592
-19z"/>
<path d="M1640 3257 c0 -67 4 -107 12 -115 9 -9 154 -12 590 -12 666 0 598
-13 598 114 0 127 59 116 -620 116 l-580 0 0 -103z"/>
<path d="M4830 3353 c-40 -13 -60 -29 -75 -58 -18 -39 -20 -136 -3 -153 17
-17 1149 -17 1166 0 8 8 12 46 12 105 0 81 -2 94 -19 103 -20 10 -1050 14
-1081 3z"/>
<path d="M6330 3353 c-31 -11 -40 -37 -40 -114 0 -57 4 -82 16 -93 14 -14 80
-16 583 -16 428 0 570 3 579 12 8 8 12 48 12 115 l0 103 -567 -1 c-313 0 -575
-3 -583 -6z"/>
<path d="M7837 3268 c-4 -71 -2 -98 9 -115 l14 -23 563 0 c309 0 567 4 573 8
23 15 34 53 34 121 0 50 -4 74 -16 85 -14 14 -81 16 -593 16 l-578 0 -6 -92z"/>
<path d="M9397 3354 c-3 -3 -1 -18 5 -33 7 -18 6 -46 -3 -93 -10 -54 -10 -70
1 -83 11 -13 82 -15 586 -15 662 0 594 -14 594 118 0 64 -4 82 -18 95 -17 15
-72 17 -589 17 -313 0 -572 -3 -576 -6z"/>
<path d="M3192 3280 c4 -75 24 -114 69 -137 34 -18 1089 -19 1107 -1 8 8 12
47 12 110 l0 98 -596 0 -596 0 4 -70z"/>
</g>
</svg>
