<?xml version="1.0" encoding="UTF-8"?><svg id="Layer_1" xmlns="http://www.w3.org/2000/svg" viewBox="0 0 267.18 164.38"><defs><style>.cls-1{fill:#fff;}.cls-2{fill:#fdc010;}.cls-3{fill:#242424;}</style></defs><g><g><g><path class="cls-1" d="M6.3,151.05H1.41v-4.58h15.41v4.58h-4.89v12.92H6.3v-12.92Z"/><path class="cls-1" d="M35.23,146.48v17.5h-5.63v-6.45h-5.2v6.45h-5.63v-17.5h5.63v6.2h5.2v-6.2h5.63Z"/><path class="cls-1" d="M52.33,159.53v4.45h-13.88v-17.5h13.57v4.45h-8.04v2.05h7.06v4.25h-7.06v2.3h8.35Z"/><path class="cls-1" d="M77.56,163.98l-.05-7.97-3.62,6.4h-2.48l-3.62-6.12v7.7h-5.13v-17.5h4.63l5.44,9.33,5.29-9.33h4.63l.05,17.5h-5.13Z"/><path class="cls-1" d="M90.15,163.2c-1.43-.78-2.55-1.87-3.36-3.26-.81-1.39-1.22-2.96-1.22-4.71s.41-3.32,1.22-4.71c.81-1.39,1.93-2.48,3.36-3.26,1.43-.78,3.04-1.18,4.84-1.18s3.41,.39,4.84,1.18c1.43,.78,2.55,1.87,3.36,3.26,.81,1.39,1.22,2.96,1.22,4.71s-.41,3.32-1.22,4.71c-.81,1.39-1.93,2.48-3.36,3.26-1.43,.78-3.04,1.18-4.84,1.18s-3.41-.39-4.84-1.18Zm6.74-4.14c.56-.36,1.01-.87,1.35-1.53s.5-1.43,.5-2.31-.17-1.65-.5-2.31-.78-1.17-1.35-1.53c-.56-.36-1.2-.54-1.9-.54s-1.33,.18-1.9,.54c-.56,.36-1.01,.87-1.35,1.53s-.5,1.43-.5,2.31,.17,1.65,.5,2.31,.78,1.17,1.35,1.53c.56,.36,1.2,.54,1.9,.54s1.33-.18,1.9-.54Z"/><path class="cls-1" d="M124.2,146.48l-7.06,17.5h-5.53l-7.06-17.5h6.06l3.98,10.22,4.08-10.22h5.53Z"/><path class="cls-1" d="M125.25,146.48h5.63v17.5h-5.63v-17.5Z"/><path class="cls-1" d="M147.98,159.53v4.45h-13.88v-17.5h13.57v4.45h-8.04v2.05h7.06v4.25h-7.06v2.3h8.35Z"/><path class="cls-1" d="M165.46,159.58h-1.53v4.4h-5.63v-17.5h8.04c1.54,0,2.89,.27,4.03,.8,1.15,.53,2.03,1.3,2.65,2.3s.93,2.17,.93,3.5c0,1.25-.27,2.34-.81,3.28-.54,.93-1.32,1.67-2.34,2.22l3.51,5.4h-6.01l-2.84-4.4Zm2.24-8.01c-.38-.36-.95-.54-1.72-.54h-2.05v4.1h2.05c.76,0,1.34-.18,1.72-.54,.38-.36,.57-.86,.57-1.51s-.19-1.15-.57-1.51Z"/><path class="cls-1" d="M190.45,159.53v4.45h-13.88v-17.5h13.57v4.45h-8.04v2.05h7.06v4.25h-7.06v2.3h8.35Z"/><path class="cls-1" d="M210.72,146.48l-7.06,17.5h-5.53l-7.06-17.5h6.06l3.98,10.22,4.08-10.22h5.53Z"/><path class="cls-1" d="M211.77,146.48h5.63v17.5h-5.63v-17.5Z"/><path class="cls-1" d="M234.5,159.53v4.45h-13.88v-17.5h13.57v4.45h-8.04v2.05h7.06v4.25h-7.06v2.3h8.35Z"/><path class="cls-1" d="M264.1,146.48l-5.34,17.5h-6.03l-2.69-9.35-2.84,9.35h-6.03l-5.34-17.5h5.8l2.91,9.95,3.08-9.95h5.17l2.91,10.08,3.08-10.08h5.34Z"/></g><path class="cls-2" d="M133.34,128.77c-4.39,0-8.79-.03-13.18,.02-1.08,.01-1.6-.26-1.7-1.44-.48-5.7-1.03-11.4-1.57-17.1-.18-1.88-.39-3.76-.63-5.63-.74-5.79,3.17-10.44,9.02-10.54,5.45-.09,10.9-.06,16.35,0,4.05,.04,7.78,2.45,8.68,6.03,.54,2.16,.47,4.55,.27,6.8-.58,6.7-1.41,13.38-2.03,20.07-.13,1.45-.62,1.86-2.04,1.83-4.39-.09-8.79-.03-13.18-.03Z"/><path class="cls-2" d="M186.99,128.77c-2.66,0-5.15,0-7.65,0-6.73,0-13.46-.03-20.19,.03-1.3,.01-1.91-.32-2.02-1.69-.34-4.38-.75-8.75-1.16-13.11-.26-2.81-.36-5.67-.91-8.43-1.45-7.25,4.11-11.77,9.8-11.55,4.94,.19,9.9,.03,14.85,.05,6.64,.02,10.44,4.37,9.73,10.97-.82,7.57-1.54,15.14-2.31,22.72-.03,.27-.07,.53-.14,1.03Z"/><path class="cls-2" d="M79.9,128.6c-.47-4.58-.95-9.15-1.41-13.73-.35-3.54-.68-7.07-1.01-10.61-.52-5.72,3.28-10.08,9.03-10.19,5.45-.1,10.89,0,16.34-.02,5.53-.02,9.74,4.74,9.19,9.79-.65,5.9-1.2,11.82-1.78,17.73-.2,1.99-.37,3.98-.53,5.97-.07,.88-.44,1.25-1.37,1.24-9.23-.03-18.45-.02-27.68-.03-.21,0-.42-.08-.79-.15Z"/><path class="cls-2" d="M249.77,128.77c-4.45,0-8.9-.03-13.34,.02-1.1,.01-1.61-.32-1.71-1.45-.52-5.7-1.08-11.39-1.64-17.09-.19-1.93-.39-3.87-.59-5.8-.61-5.85,3.3-10.32,9.19-10.39,5.39-.06,10.79-.08,16.18,0,5.9,.09,9.97,4.78,9.24,10.57-.16,1.29-.77,2.52-.91,3.81-.15,1.41,.14,2.86,0,4.27-.43,4.87-1,9.72-1.43,14.59-.1,1.14-.53,1.49-1.65,1.48-4.45-.05-8.89-.02-13.34-.02Z"/><path class="cls-2" d="M196.04,128.49c-.69-7.52-1.34-15.05-2.09-22.56-.22-2.23-.53-4.44,.48-6.54,1.64-3.4,4.42-5.24,8.17-5.31,5.56-.1,11.12-.04,16.68-.02,5.22,.02,9.48,4.49,8.95,9.63-.64,6.24-1.21,12.5-1.8,18.75-.16,1.66-.26,3.32-.38,4.99-.06,.81-.29,1.36-1.28,1.35-9.4-.04-18.79-.04-28.19-.07-.1,0-.2-.08-.55-.22Z"/><path class="cls-2" d="M36.8,94.38c-1.75-1.32-3.15-2.81-4.87-3.55-2.04-.88-4.34-1.17-6.56-1.58-.97-.18-1.99-.03-2.99-.02-2.78,0-2.71,0-3-2.85-.27-2.64-.31-5.18,1.27-7.52,1.83-2.7,4.38-4.09,7.55-4.14,5.55-.1,11.11-.09,16.67-.01,5.36,.08,9.33,4.69,9.06,9.65-.27,4.86-.15,4.95-4.84,4.84-4.95-.12-9.13,1.4-12.3,5.19Z"/><path class="cls-2" d="M152.83,94.66c-3.68-4.61-8.43-5.7-13.73-5.47-3.01,.13-2.96,.01-3.43-3-.46-2.86-.19-5.54,1.62-7.9,1.8-2.35,4.27-3.54,7.19-3.58,5.55-.08,11.11-.07,16.66,0,5.22,.06,9.21,4.59,9,9.34-.23,5.16-.1,5.23-5.15,5.16-4.83-.07-8.89,1.51-12.16,5.46Z"/><path class="cls-2" d="M191.77,94.26c-1.79-1.26-3.42-2.57-5.2-3.62-2.81-1.66-5.99-1.43-9.1-1.43-2.77,0-2.63-.02-3.08-2.77-.58-3.52-.01-6.61,2.59-9.17,1.75-1.72,3.9-2.55,6.31-2.57,5.51-.05,11.01-.08,16.52,0,5.56,.08,9.55,4.62,9.01,10.13-.43,4.39-.43,4.47-4.75,4.36-4.7-.12-8.72,1.27-11.93,4.78-.14,.15-.32,.26-.37,.3Z"/><path class="cls-2" d="M230.36,94.19c-1.54-1.12-3.09-2.45-4.82-3.48-2.85-1.68-6.07-1.53-9.24-1.51-3.08,.02-3.04,0-3.21-3.14-.13-2.46-.29-4.92,1.18-7.08,1.87-2.76,4.5-4.25,7.83-4.29,5.5-.06,11.01-.07,16.51,0,5.32,.07,9.28,4.38,9.01,9.67-.04,.83-.19,1.65-.3,2.48-.32,2.39-.32,2.41-2.78,2.38-3.17-.04-6.4-.19-9.26,1.46-1.75,1.01-3.31,2.35-4.9,3.51Z"/><path class="cls-2" d="M114.22,94.51c-1.04-.94-1.92-1.85-2.92-2.61-2.37-1.79-5.1-2.62-8.06-2.68-1.44-.03-2.89-.06-4.33,0-1.32,.06-2-.42-1.95-1.8,.08-2.62-.68-5.27,.77-7.82,1.78-3.13,4.45-4.8,7.94-4.89,5.61-.13,11.22-.12,16.83-.01,5.5,.11,9.46,4.84,8.78,10.28-.03,.28-.08,.55-.11,.83-.35,3.39-.35,3.5-3.69,3.37-5.21-.2-9.79,1.05-13.25,5.33Z"/><path class="cls-2" d="M41.02,131.66c.82,0,1.36,0,1.9,0,8.71,0,17.43,.04,26.14-.04,1.61-.01,1.95,.53,1.9,2-.15,4.11,.69,3.77-3.87,3.78-7.94,.01-15.87,0-23.81,0-2.16,0-2.25-.1-2.26-2.25,0-1.09,0-2.19,0-3.49Z"/><path class="cls-2" d="M187.11,131.66c0,1.58-.06,2.9,.02,4.22,.08,1.22-.49,1.54-1.58,1.53-2.94-.03-5.88,0-8.82,0-5.77,0-11.54-.05-17.32,.03-1.62,.02-2.11-.54-2.08-2.12,.07-3.65,0-3.65,3.73-3.65,7.94,0,15.87,0,23.81,0,.66,0,1.32,0,2.25,0Z"/><path class="cls-2" d="M109.59,131.79c0,1.55,0,2.98,0,4.42,0,1.11-.78,1.19-1.61,1.19-2.72,0-5.45,0-8.17,0-5.45,0-10.9,0-16.34,0q-3.59,0-3.58-3.67c0-.6,0-1.21,0-1.94h29.71Z"/><path class="cls-2" d="M133.56,131.66c4.39,0,8.78,.04,13.17-.03,1.22-.02,1.68,.35,1.67,1.59-.07,4.87,.43,4.15-4,4.17-7.89,.03-15.78,.01-23.67,0-2.06,0-2.15-.1-2.16-2.18q-.02-3.55,3.5-3.55c3.83,0,7.67,0,11.5,0Z"/><path class="cls-2" d="M196.06,131.75c.77-.04,1.32-.09,1.86-.09,8.67,0,17.34,.03,26.01-.04,1.53-.01,2.06,.41,1.99,1.95-.16,3.81-.1,3.82-4.02,3.82-7.89,0-15.79-.03-23.68,.03-1.61,.01-2.39-.39-2.18-2.14,.13-1.09,.02-2.21,.02-3.53Z"/><path class="cls-2" d="M32,131.66c0,1.7,.07,3.19-.05,4.67-.03,.37-.58,.91-.98,1-.74,.17-1.55,.07-2.32,.07-8.06,0-16.12-.03-24.19,.03-1.54,.01-2.18-.4-2.15-2.06,.08-3.7,0-3.7,3.69-3.7,7.9,0,15.79,0,23.69,0h2.3Z"/><path class="cls-2" d="M234.96,131.74c.71-.04,1.2-.08,1.69-.08,8.73,0,17.45,.02,26.18-.03,1.38,0,1.84,.4,1.81,1.79-.11,4.46,.5,3.97-3.87,3.98-7.95,.02-15.9,0-23.85,0-2.04,0-2.33-.44-1.73-2.39,.16-.51,.27-1.07,.23-1.59-.03-.52-.28-1.02-.47-1.67Z"/><path class="cls-2" d="M55.9,128.77c-4.39,0-8.79-.03-13.18,.02-1.08,.01-1.6-.26-1.7-1.44-.48-5.7-1.03-11.4-1.57-17.1-.18-1.88-.39-3.76-.63-5.63-.74-5.79,3.17-10.44,9.02-10.54,5.45-.09,10.9-.06,16.35,0,4.05,.04,7.78,2.45,8.68,6.03,.54,2.16,.47,4.55,.27,6.8-.58,6.7-1.41,13.38-2.03,20.07-.13,1.45-.62,1.86-2.04,1.83-4.39-.09-8.79-.03-13.18-.03Z"/><path class="cls-2" d="M2.46,128.6c-.47-4.58-.95-9.15-1.41-13.73-.35-3.54-.68-7.07-1.01-10.61-.52-5.72,3.28-10.08,9.03-10.19,5.45-.1,10.89,0,16.34-.02,5.53-.02,9.74,4.74,9.19,9.79-.65,5.9-1.2,11.82-1.78,17.73-.2,1.99-.37,3.98-.53,5.97-.07,.88-.44,1.25-1.37,1.24-9.23-.03-18.45-.02-27.68-.03-.21,0-.42-.08-.79-.15Z"/><path class="cls-2" d="M75.5,94.51c-1.04-.94-1.92-1.85-2.92-2.61-2.37-1.79-5.1-2.62-8.06-2.68-1.44-.03-2.89-.06-4.33,0-1.32,.06-2-.42-1.95-1.8,.08-2.62-.68-5.27,.77-7.82,1.78-3.13,4.45-4.8,7.94-4.89,5.61-.13,11.22-.12,16.83-.01,5.5,.11,9.46,4.84,8.78,10.28-.03,.28-.08,.55-.11,.83-.35,3.39-.35,3.5-3.69,3.37-5.21-.2-9.79,1.05-13.25,5.33Z"/></g><path class="cls-1" d="M103.42,.03C103.22,.03,103.03,0,102.82,0,76.17,.04,49.53,.03,22.88,.03h-1.53V71.7c0-.16,.6-.3,.95-.39,2.25-.53,4.38-1.4,6.65-1.49,5.16-.23,10.29-.15,15.46-.05,4.07,.08,7.71,1.34,10.54,4.45,.75,.82,1.24,.82,2,0,2.83-3.1,6.48-4.38,10.56-4.45,5.17-.09,10.35-.19,15.51,.05,2.32,.11,4.71,.77,6.86,1.67,1.78,.74,3.25,2.2,4.97,3.43,.11-.09,.39-.26,.6-.5,3.12-3.47,7.14-4.69,11.66-4.68,4.78,0,9.58-.19,14.35,.08,2.49,.14,5.03,.83,7.35,1.76,1.72,.69,3.12,2.17,4.72,3.35,.17-.13,.42-.27,.59-.46,3.09-3.39,7.03-4.71,11.49-4.72,4.95-.01,9.9-.07,14.85,.02,4.13,.08,7.85,1.3,10.72,4.47,.62,.68,1.14,.91,1.89,.08,2.94-3.27,6.76-4.52,11.03-4.56,4.95-.05,9.9-.03,14.85,0,2.7,.01,5.34,.49,7.66,1.91,1.54,.94,2.9,2.17,4.37,3.29,.11-.08,.33-.17,.47-.33,3.37-3.77,7.71-4.96,12.59-4.89,4.45,.06,8.9-.06,13.35,.05,1.7,.04,3.41,.38,5.08,.74,1.2,.26,2.41,.79,3.76,1.25,0-.86,.06-1.52,.05-2.18-.02-5.45,.05-10.9,.05-16.34V.03H103.42Z"/></g><g><path class="cls-3" d="M41.02,27.02h-11.48v-10.25h36.18v10.25h-11.48v28.95h-13.22V27.02Z"/><path class="cls-3" d="M104.13,55.98l-.11-17.86-8.51,14.34h-5.82l-8.51-13.72v17.25h-12.04V16.78h10.86l12.77,20.89,12.43-20.89h10.86l.11,39.2h-12.04Z"/><path class="cls-3" d="M139.35,46.12h-3.58v9.86h-13.22V16.78h18.87c3.62,0,6.78,.6,9.46,1.79,2.69,1.2,4.76,2.91,6.22,5.15s2.18,4.85,2.18,7.84c0,2.8-.63,5.25-1.9,7.34-1.27,2.09-3.1,3.75-5.49,4.98l8.23,12.1h-14.11l-6.66-9.86Zm5.26-17.95c-.9-.8-2.24-1.2-4.03-1.2h-4.82v9.18h4.82c1.79,0,3.14-.4,4.03-1.2,.9-.8,1.34-1.93,1.34-3.39s-.45-2.58-1.34-3.39Z"/><path class="cls-3" d="M196.87,46.01v9.97h-32.59V16.78h31.86v9.97h-18.87v4.59h16.58v9.52h-16.58v5.15h19.6Z"/><path class="cls-3" d="M243.29,16.78l-16.58,39.2h-12.99l-16.58-39.2h14.22l9.35,22.9,9.58-22.9h12.99Z"/></g></svg>