<svg xmlns="http://www.w3.org/2000/svg" width="575" height="266" viewBox="0 0 575 266">
  <g id="Group_16" data-name="Group 16" transform="translate(-6838 -374)">
    <rect id="Rectangle_15" data-name="Rectangle 15" width="575" height="266" rx="4" transform="translate(6838 374)" fill="#fff"/>
    <defs><path id="gl_1" d="M34.145507813,-0 L34.145507813,-74.816894531 L1.647949219,-74.816894531 L1.647949219,-84.572753906 L79.694824219,-84.572753906 L79.694824219,-74.816894531 L47.197265625,-74.816894531 L47.197265625,-0 L34.145507813,-0 ZM34.145507813,-0 Z"/></defs><use href="#gl_1" transform="matrix(1 0 0 1 6877 556)" fill="rgba(0,0,0,1)" stroke-width="1" stroke-linejoin="miter-clip" stroke-miterlimit="4" stroke-linecap="butt" stroke="none"/><defs><path id="gl_2" d="M6.196289063,-0 L6.196289063,-84.572753906 L21.818847656,-84.572753906 L40.407714844,-32.497558594 L40.539550781,-32.497558594 L58.798828125,-84.572753906 L75.080566406,-84.572753906 L75.080566406,-0 L64.467773438,-0 L64.467773438,-72.575683594 L64.3359375,-72.575683594 L45.285644531,-17.863769531 L34.343261719,-17.863769531 L15.358886719,-71.059570313 L15.227050781,-71.059570313 L15.227050781,-0 L6.196289063,-0 ZM6.196289063,-0 Z"/></defs><use href="#gl_2" transform="matrix(1 0 -0 1 6958.3423 556)" fill="rgba(0,0,0,1)" stroke-width="1" stroke-linejoin="miter-clip" stroke-miterlimit="4" stroke-linecap="butt" stroke="none"/><defs><path id="gl_3" d="M12.12890625,-0 L12.12890625,-84.572753906 L35.793457031,-84.572753906 L35.793457031,-84.572753906 C45.637207031,-84.572753906 52.470703125,-83.759765625 56.293945313,-82.133789063 L56.293945313,-82.133789063 C64.467773438,-78.75 68.5546875,-72.7734375 68.5546875,-64.204101563 L68.5546875,-64.204101563 C68.5546875,-58.315429688 67.082519531,-53.404541016 64.138183594,-49.471435547 L64.138183594,-49.471435547 C61.193847656,-45.538330078 56.271972656,-41.879882813 49.372558594,-38.49609375 L79.299316406,-0 L63.544921875,-0 L36.848144531,-35.200195313 L25.114746094,-35.200195313 L25.114746094,-0 L12.12890625,-0 ZM31.970214844,-45.021972656 L31.970214844,-45.021972656 C38.957519531,-45.021972656 44.494628906,-46.560058594 48.581542969,-49.636230469 L48.581542969,-49.636230469 C52.668457031,-52.712402344 54.711914063,-56.865234375 54.711914063,-62.094726563 L54.711914063,-62.094726563 C54.711914063,-66.97265625 53.173828125,-70.3125 50.09765625,-72.114257813 L50.09765625,-72.114257813 C47.021484375,-73.916015625 41.352539063,-74.816894531 33.090820313,-74.816894531 L25.114746094,-74.816894531 L25.114746094,-45.021972656 ZM25.114746094,-45.021972656 Z"/></defs><use href="#gl_3" transform="matrix(1 0 -0 1 7039.6851 556)" fill="rgba(0,0,0,1)" stroke-width="1" stroke-linejoin="miter-clip" stroke-miterlimit="4" stroke-linecap="butt" stroke="none"/><defs><path id="gl_4" d="M14.23828125,-0 L14.23828125,-84.572753906 L71.389160156,-84.572753906 L71.389160156,-74.816894531 L27.224121094,-74.816894531 L27.224121094,-49.174804688 L64.665527344,-49.174804688 L64.665527344,-39.418945313 L27.224121094,-39.418945313 L27.224121094,-9.755859375 L74.421386719,-9.755859375 L74.421386719,-0 L14.23828125,-0 ZM14.23828125,-0 Z"/></defs><use href="#gl_4" transform="matrix(1 0 -0 1 7121.0278 556)" fill="rgba(0,0,0,1)" stroke-width="1" stroke-linejoin="miter-clip" stroke-miterlimit="4" stroke-linecap="butt" stroke="none"/><defs><path id="gl_5" d="M33.75,-0 L0.922851563,-84.572753906 L14.633789063,-84.572753906 L41.66015625,-17.336425781 L69.279785156,-84.572753906 L80.354003906,-84.572753906 L46.801757813,-0 L33.75,-0 ZM33.75,-0 Z"/></defs><use href="#gl_5" transform="matrix(1 0 -0 1 7202.3706 556)" fill="rgba(0,0,0,1)" stroke-width="1" stroke-linejoin="miter-clip" stroke-miterlimit="4" stroke-linecap="butt" stroke="none"/>
  </g>
</svg>